# xmcd CD database file
#
# Track frame offsets:
#	150
#	10421
#	21706
#	32649
#	43125
#	53389
#	61530
#	71594
#	83828
#	91485
#	97622
#	105585
#	116426
#	121766
#	132310
#	140252
#
# Disc length: 2044 seconds
#
# Revision: 0
# Processed by: cddbd v1.5.2PL0 Copyright (c) Steve Scherf et al.
# Submitted via: CDex 1.70beta2
#
DISCID=c607fa10
DTITLE=Guido Heistek - Solo Ukulele
DYEAR=2013
DGENRE=Jazz
TTITLE0=In A Sentimental Mood
TTITLE1=Mood Indigo
TTITLE2=On Green Dolphin Street
TTITLE3=I Can't Get Started With You
TTITLE4=I'll See You In My Dreams
TTITLE5=Honeysuckle Rose
TTITLE6=Moon River
TTITLE7=Stolen Pieces - Ferry Song #2
TTITLE8=My Buddy 
TTITLE9=Sleeping Beauty Waltz
TTITLE10=Ain't Misbehavin'
TTITLE11=Over The Rainbow
TTITLE12=Spanish Medley - Variation
TTITLE13=In The Bones - Ferry Song #1
TTITLE14=Amazing Grace
TTITLE15=Moon River - Vocal Version
EXTD=YEAR: 2013
EXTT0=
EXTT1=
EXTT2=
EXTT3=
EXTT4=
EXTT5=
EXTT6=
EXTT7=
EXTT8=
EXTT9=
EXTT10=
EXTT11=
EXTT12=
EXTT13=
EXTT14=
EXTT15=
PLAYORDER=
